#!OML:ASF H:\ManfredETheater\Project 1\Capture day 1\Session 1\subject.ASF
:FULLY-SPECIFIED
:DEGREES
122
root 1.07435 17.8179 -13.5121 -182.389 -7.13898 178.091
lowerback 3.13954 -0.775689 0.119204
upperback -4.05165 -1.06216 2.41812
thorax -5.92253 -0.538409 2.54304
lowerneck -17.5162 -1.99879 -3.10425
upperneck 17.639 -2.08788 -0.0775014
head 8.41158 -1.28085 0.216453
rclavicle -3.24019e-014 8.11041e-014
rhumerus -36.8853 0.311363 -82.2238
rradius 55.4065
rwrist -4.36696
rhand -23.2864 -4.31483
rfingers 7.12502
rthumb 3.16649 -34.2711
lclavicle -3.24019e-014 8.11041e-014
lhumerus -48.0655 6.1016 84.6204
lradius 30.084
lwrist -17.0485
lhand -9.5437 2.09581
lfingers 7.12502
lthumb 16.423 31.4206
rfemur -14.0534 0.243103 22.1821
rtibia 35.3166
rfoot -12.6289 -13.2618
rtoes -4.72627
lfemur -18.7089 -6.12351 -21.966
ltibia 40.5998
lfoot -14.5693 -5.30188
ltoes 10.3049
123
root 1.07724 17.8269 -13.5991 -182.06 -7.20211 178.104
lowerback 2.96523 -0.811232 0.0798858
upperback -4.12527 -1.11954 2.42006
thorax -5.8969 -0.567646 2.56944
lowerneck -17.5457 -1.99686 -3.09856
upperneck 17.7238 -2.10169 -0.0149064
head 8.44621 -1.2822 0.233967
rclavicle 2.38542e-015 -1.51076e-014
rhumerus -36.913 -0.248799 -82.2548
rradius 54.6432
rwrist -4.28289
rhand -23.3335 -4.74921
rfingers 7.12502
rthumb 3.12105 -34.7061
lclavicle 2.38542e-015 -1.51076e-014
lhumerus -47.8485 7.37636 83.4381
lradius 28.9487
lwrist -18.3802
lhand -9.08955 2.27716
lfingers 7.12502
lthumb 16.8602 31.5652
rfemur -13.9941 0.287402 22.2495
rtibia 35.1515
rfoot -12.8467 -13.3855
rtoes -4.74977
lfemur -18.6002 -6.19695 -21.9175
ltibia 40.3436
lfoot -14.9017 -5.22669
ltoes 10.4392
124
root 1.08026 17.8349 -13.683 -181.755 -7.28015 178.121
lowerback 2.8208 -0.850974 0.0441064
upperback -4.18663 -1.18106 2.42032
thorax -5.87534 -0.5987 2.59263
lowerneck -17.5845 -1.99656 -3.09005
upperneck 17.8038 -2.11697 0.0438507
head 8.48088 -1.28416 0.249528
rclavicle 8.94531e-015 1.82882e-014
rhumerus -36.932 -0.806778 -82.2847
rradius 53.8453
rwrist -4.25443
rhand -23.4085 -5.22803
rfingers 7.12502
rthumb 3.04858 -35.186
lclavicle 8.94531e-015 1.82882e-014
lhumerus -47.6421 8.73331 82.1974
lradius 27.9167
lwrist -19.6124
lhand -8.63374 2.60046
lfingers 7.12502
lthumb 17.299 31.8506
rfemur -13.9245 0.301965 22.3176
rtibia 34.9921
rfoot -13.0606 -13.4915
rtoes -4.76671
lfemur -18.5128 -6.22228 -21.8641
ltibia 40.1389
lfoot -15.1967 -5.21526
ltoes 10.5382
125
root 1.08344 17.8423 -13.7635 -181.468 -7.36736 178.14
lowerback 2.70739 -0.893757 0.00899747
upperback -4.23996 -1.24544 2.41916
thorax -5.86298 -0.630807 2.61457
lowerneck -17.6241 -1.99983 -3.08849
upperneck 17.877 -2.13542 0.104183
head 8.51356 -1.28767 0.26643
rclavicle 1.43125e-014 3.33958e-014
rhumerus -36.945 -1.35221 -82.3136
rradius 53.0082
rwrist -4.26436
rhand -23.5005 -5.74521
rfingers 7.12502
rthumb 2.95975 -35.7044
lclavicle 1.43125e-014 3.33958e-014
lhumerus -47.4599 10.1424 80.926
lradius 27.0061
lwrist -20.7121
lhand -8.18985 3.07545
lfingers 7.12502
lthumb 17.7262 32.2875
rfemur -13.8504 0.300199 22.3843
rtibia 34.8396
rfoot -13.2684 -13.5854
rtoes -4.76958
lfemur -18.4493 -6.22672 -21.8085
ltibia 39.9831
lfoot -15.4564 -5.23929
ltoes 10.5966
126
root 1.08668 17.8489 -13.8408 -181.2 -7.46405 178.154
lowerback 2.62187 -0.939202 -0.0299244
upperback -4.28267 -1.31231 2.41541
thorax -5.85524 -0.663548 2.63643
lowerneck -17.6667 -2.00565 -3.08716
upperneck 17.9404 -2.15563 0.15919
head 8.5435 -1.29225 0.281424
rclavicle -3.37934e-015 -2.70347e-014
rhumerus -36.9377 -1.88221 -82.3404
rradius 52.1186
rwrist -4.30123
rhand -23.6076 -6.27054
rfingers 7.12502
rthumb 2.85628 -36.2312
lclavicle -3.37934e-015 -2.70347e-014
lhumerus -47.2944 11.582 79.646
lradius 26.2098
lwrist -21.6779
lhand -7.78722 3.68103
lfingers 7.12502
lthumb 18.1136 32.8576
rfemur -13.7723 0.284204 22.444
rtibia 34.6955
rfoot -13.4713 -13.6699
rtoes -4.75881
lfemur -18.4042 -6.23615 -21.7576
ltibia 39.8697
lfoot -15.6886 -5.2758
ltoes 10.6185
127
root 1.0901 17.8549 -13.9152 -180.952 -7.56582 178.166
lowerback 2.55924 -0.985097 -0.0738871
upperback -4.31434 -1.37884 2.41076
thorax -5.84886 -0.695488 2.66036
lowerneck -17.7076 -2.01561 -3.09753
upperneck 17.9932 -2.17937 0.220467
head 8.56987 -1.29832 0.300117
rclavicle 2.48481e-014 -1.43125e-014
rhumerus -36.9132 -2.39566 -82.3623
rradius 51.1758
rwrist -4.35095
rhand -23.7227 -6.78989
rfingers 7.12502
rthumb 2.74517 -36.752
lclavicle 2.48481e-014 -1.43125e-014
lhumerus -47.1467 13.0064 78.3976
lradius 25.5337
lwrist -22.4837
lhand -7.4539 4.39623
lfingers 7.12502
lthumb 18.4342 33.5428
rfemur -13.6888 0.266006 22.4998
rtibia 34.5612
rfoot -13.6696 -13.7545
rtoes -4.73234
lfemur -18.3695 -6.26234 -21.7105
ltibia 39.7907
lfoot -15.9001 -5.30762
ltoes 10.5945
128
root 1.09361 17.8602 -13.9867 -180.718 -7.67581 178.172
lowerback 2.51771 -1.03096 -0.123695
upperback -4.33687 -1.44456 2.4047
thorax -5.8448 -0.72638 2.68628
lowerneck -17.7485 -2.03063 -3.11486
upperneck 18.0356 -2.20703 0.278333
head 8.59285 -1.30676 0.318394
rclavicle 3.18055e-015 9.54166e-015
rhumerus -36.867 -2.89384 -82.3761
rradius 50.1714
rwrist -4.402
rhand -23.8466 -7.27586
rfingers 7.12502
rthumb 2.62555 -37.2395
lclavicle 3.18055e-015 9.54166e-015
lhumerus -47.0102 14.373 77.2193
lradius 24.9805
lwrist -23.1098
lhand -7.2122 5.19762
lfingers 7.12502
lthumb 18.6667 34.322
rfemur -13.6055 0.248385 22.5492
rtibia 34.438
rfoot -13.8626 -13.8449
rtoes -4.68515
lfemur -18.3452 -6.31332 -21.6698
ltibia 39.7378
lfoot -16.0911 -5.33029
ltoes 10.5462
129
root 1.09726 17.8649 -14.0556 -180.499 -7.79313 178.175
lowerback 2.48793 -1.07563 -0.178064
upperback -4.34918 -1.50802 2.39819
thorax -5.83663 -0.755666 2.71411
lowerneck -17.7795 -2.04991 -3.14184
upperneck 18.0607 -2.23827 0.338697
head 8.60848 -1.31693 0.338866
rclavicle -7.35503e-015 -1.11319e-014
rhumerus -36.8036 -3.3802 -82.379
rradius 49.1107
rwrist -4.43868
rhand -23.9673 -7.71962
rfingers 7.12502
rthumb 2.50894 -37.6846
lclavicle -7.35503e-015 -1.11319e-014
lhumerus -46.8748 15.6479 76.1397
lradius 24.5456
lwrist -23.5551
lhand -7.06853 6.04606
lfingers 7.12502
lthumb 18.8049 35.1571
rfemur -13.5208 0.234976 22.5966
rtibia 34.3257
rfoot -14.05 -13.9458
rtoes -4.62829
lfemur -18.3256 -6.38802 -21.6327
ltibia 39.7036
lfoot -16.2657 -5.34225
ltoes 10.4967
130
root 1.10093 17.8693 -14.1225 -180.29 -7.91205 178.179
lowerback 2.46307 -1.11596 -0.233306
upperback -4.3521 -1.56505 2.39246
thorax -5.82153 -0.781551 2.74258
lowerneck -17.8096 -2.07652 -3.17942
upperneck 18.0761 -2.27589 0.397132
head 8.62093 -1.33078 0.359694
rclavicle -1.51076e-014 3.89618e-014
rhumerus -36.7236 -3.86145 -82.3665
rradius 47.9957
rwrist -4.4442
rhand -24.0622 -8.1383
rfingers 7.12502
rthumb 2.41732 -38.1044
lclavicle -1.51076e-014 3.89618e-014
lhumerus -46.7323 16.7973 75.1895
lradius 24.2269
lwrist -23.8139
lhand -7.03688 6.8887
lfingers 7.12502
lthumb 18.8353 35.9968
rfemur -13.4373 0.230071 22.6454
rtibia 34.2224
rfoot -14.2321 -14.0571
rtoes -4.55687
lfemur -18.3105 -6.47736 -21.5962
ltibia 39.6831
lfoot -16.4293 -5.34431
ltoes 10.4399
131
root 1.10442 17.8733 -14.1875 -180.088 -8.02895 178.179
lowerback 2.43751 -1.15039 -0.290006
upperback -4.34951 -1.61396 2.38514
thorax -5.80053 -0.803316 2.7694
lowerneck -17.8217 -2.1071 -3.2221
upperneck 18.0741 -2.31733 0.452854
head 8.6244 -1.34686 0.380231
rclavicle 3.02153e-014 -1.90833e-014
rhumerus -36.6331 -4.3414 -82.3386
rradius 46.8269
rwrist -4.40999
rhand -24.1321 -8.49403
rfingers 7.12502
rthumb 2.34979 -38.4608
lclavicle 3.02153e-014 -1.90833e-014
lhumerus -46.5776 17.7892 74.3909
lradius 24.0245
lwrist -23.8826
lhand -7.11099 7.6938
lfingers 7.12502
lthumb 18.7641 36.8088
rfemur -13.357 0.225882 22.69
rtibia 34.1256
rfoot -14.4084 -14.1674
rtoes -4.47987
lfemur -18.2999 -6.5771 -21.5648
ltibia 39.6729
lfoot -16.5848 -5.33656
ltoes 10.3892
132
root 1.10763 17.8771 -14.2509 -179.889 -8.13796 178.183
lowerback 2.40507 -1.17571 -0.337958
upperback -4.34266 -1.65018 2.37815
thorax -5.77184 -0.819276 2.79033
lowerneck -17.8238 -2.1417 -3.26997
upperneck 18.0626 -2.3625 0.50586
head 8.62302 -1.36524 0.400374
rclavicle -1.08338e-014 3.81667e-014
rhumerus -36.5389 -4.82494 -82.2917
rradius 45.616
rwrist -4.32615
rhand -24.1602 -8.8222
rfingers 7.12502
rthumb 2.32262 -38.7893
lclavicle -1.08338e-014 3.81667e-014
lhumerus -46.4021 18.6075 73.757
lradius 23.9334
lwrist -23.7774
lhand -7.27862 8.41347
lfingers 7.12502
lthumb 18.6028 37.544
rfemur -13.2837 0.225265 22.7395
rtibia 34.0321
rfoot -14.5761 -14.2751
rtoes -4.40848
lfemur -18.298 -6.68323 -21.5285
ltibia 39.6714
lfoot -16.7348 -5.31803
ltoes 10.3438
133
root 1.11063 17.8808 -14.3125 -179.691 -8.23788 178.197
lowerback 2.36661 -1.19249 -0.373603
upperback -4.33572 -1.67451 2.37314
thorax -5.74043 -0.830011 2.80536
lowerneck -17.8077 -2.17857 -3.31716
upperneck 18.0389 -2.40974 0.550072
head 8.61426 -1.38547 0.417401
rclavicle 3.52843e-014 -4.37326e-014
rhumerus -36.4498 -5.31113 -82.2256
rradius 44.3731
rwrist -4.17994
rhand -24.1286 -9.13518
rfingers 7.12502
rthumb 2.35311 -39.1019
lclavicle 3.52843e-014 -4.37326e-014
lhumerus -46.2044 19.2381 73.2963
lradius 23.9546
lwrist -23.5032
lhand -7.52005 9.03654
lfingers 7.12502
lthumb 18.3706 38.1891
rfemur -13.2195 0.225592 22.7991
rtibia 33.938
rfoot -14.7333 -14.3751
rtoes -4.34246
lfemur -18.3083 -6.79258 -21.4808
ltibia 39.6788
lfoot -16.8821 -5.29137
ltoes 10.2993
134
root 1.11324 17.8844 -14.3727 -179.493 -8.32072 178.218
lowerback 2.32176 -1.198 -0.397797
upperback -4.3307 -1.68349 2.36843
thorax -5.70843 -0.83381 2.81302
lowerneck -17.7691 -2.21552 -3.36341
upperneck 18.0048 -2.4572 0.588652
head 8.59791 -1.40646 0.432603
rclavicle 1.00386e-014 0
rhumerus -36.3699 -5.80549 -82.1369
rradius 43.0933
rwrist -3.95939
rhand -24.0382 -9.38699
rfingers 7.12502
rthumb 2.44045 -39.3528
lclavicle 1.00386e-014 0
lhumerus -45.9855 19.6764 73.0061
lradius 24.0814
lwrist -23.08
lhand -7.81959 9.54204
lfingers 7.12502
lthumb 18.0824 38.7215
rfemur -13.1602 0.222347 22.8639
rtibia 33.8403
rfoot -14.8823 -14.4544
rtoes -4.28274
lfemur -18.3256 -6.90156 -21.4256
ltibia 39.6951
lfoot -17.0308 -5.25269
ltoes 10.2462
